<svg viewBox="0 0 455 455" xmlns="http://www.w3.org/2000/svg" xmlns:xlink="http://www.w3.org/1999/xlink"
     overflow="hidden">
    <g>
        <path d="M323.417 152.849C304.9 152.849 289.888 167.861 289.888 186.378 289.888 204.896 304.9 219.908 323.417 219.908 341.935 219.908 356.947 204.896 356.947 186.378 356.947 167.861 341.935 152.849 323.417 152.849ZM226.046 152.849C207.528 152.849 192.517 167.861 192.517 186.379 192.517 204.896 207.528 219.908 226.046 219.908 244.564 219.908 259.576 204.896 259.575 186.379 259.576 167.861 244.564 152.849 226.046 152.849ZM128.675 152.849C110.157 152.849 95.1451 167.861 95.1452 186.379 95.1451 204.896 110.157 219.908 128.675 219.908 147.192 219.908 162.204 204.896 162.204 186.379 162.204 167.861 147.192 152.849 128.675 152.849ZM101.562 15.4524 350.53 15.4525C400.267 15.4523 440.587 55.7725 440.587 105.51L440.587 267.247C440.587 316.985 400.267 357.305 350.53 357.305L164.138 357.305 78.7193 448.983 75.5145 353.444 74.7821 353.256C38.1225 341.854 11.505 307.659 11.5049 267.247L11.5049 105.51C11.5049 55.7725 51.825 15.4525 101.562 15.4524Z"
              fill="#26D968" fill-rule="evenodd"/>
    </g>
</svg>