<svg width="18" height="18" viewBox="0 0 18 18" fill="none" xmlns="http://www.w3.org/2000/svg">
    <g clip-path="url(#clip0_3294_1449)">
        <mask id="mask0_3294_1449" style="mask-type:luminance" maskUnits="userSpaceOnUse" x="-3" y="0" width="24"
              height="18">
            <path d="M-3 0H21V18H-3V0Z" fill="white"/>
        </mask>
        <g mask="url(#mask0_3294_1449)">
            <path fill-rule="evenodd" clip-rule="evenodd" d="M-3 0H21V18H-3V0Z" fill="#F7FCFF"/>
            <path fill-rule="evenodd" clip-rule="evenodd" d="M-3 10.9995V12.4995H21V10.9995H-3Z" fill="#E31D1C"/>
            <path fill-rule="evenodd" clip-rule="evenodd" d="M-3 13.7505V15.2505H21V13.7505H-3Z" fill="#E31D1C"/>
            <path fill-rule="evenodd" clip-rule="evenodd" d="M-3 5.49951V6.99951H21V5.49951H-3Z" fill="#E31D1C"/>
            <path fill-rule="evenodd" clip-rule="evenodd" d="M-3 16.5005V18.0005H21V16.5005H-3Z" fill="#E31D1C"/>
            <path fill-rule="evenodd" clip-rule="evenodd" d="M-3 8.24951V9.74951H21V8.24951H-3Z" fill="#E31D1C"/>
            <path fill-rule="evenodd" clip-rule="evenodd" d="M-3 0V1.5H21V0H-3Z" fill="#E31D1C"/>
            <path fill-rule="evenodd" clip-rule="evenodd" d="M-3 2.75V4.25H21V2.75H-3Z" fill="#E31D1C"/>
            <path d="M-3 0H12V9.75H-3V0Z" fill="#2E42A5"/>
            <path fill-rule="evenodd" clip-rule="evenodd"
                  d="M-1.70858 2.20416L-2.253 2.58582L-2.0692 1.90661L-2.55273 1.47618H-1.92117L-1.70935 0.921875L-1.46097 1.47618H-0.922577L-1.34561 1.90661L-1.18184 2.58582L-1.70858 2.20416ZM1.29142 2.20416L0.747006 2.58582L0.9308 1.90661L0.447268 1.47618H1.07883L1.29065 0.921875L1.53903 1.47618H2.07742L1.65439 1.90661L1.81816 2.58582L1.29142 2.20416ZM3.74701 2.58582L4.29142 2.20416L4.81816 2.58582L4.65436 1.90661L5.07744 1.47618H4.53901L4.29065 0.921875L4.07883 1.47618H3.44727L3.9308 1.90661L3.74701 2.58582ZM7.29144 2.20416L6.74701 2.58582L6.93084 1.90661L6.44724 1.47618H7.07881L7.29069 0.921875L7.53901 1.47618H8.07744L7.65436 1.90661L7.81816 2.58582L7.29144 2.20416ZM-2.253 5.58582L-1.70858 5.20416L-1.18184 5.58582L-1.34561 4.90661L-0.922577 4.47618H-1.46097L-1.70935 3.92188L-1.92117 4.47618H-2.55273L-2.0692 4.90661L-2.253 5.58582ZM1.29142 5.20416L0.747006 5.58582L0.9308 4.90661L0.447268 4.47618H1.07883L1.29065 3.92188L1.53903 4.47618H2.07742L1.65439 4.90661L1.81816 5.58582L1.29142 5.20416ZM3.74701 5.58582L4.29142 5.20416L4.81816 5.58582L4.65436 4.90661L5.07744 4.47618H4.53901L4.29065 3.92188L4.07883 4.47618H3.44727L3.9308 4.90661L3.74701 5.58582ZM7.29144 5.20416L6.74701 5.58582L6.93084 4.90661L6.44724 4.47618H7.07881L7.29069 3.92188L7.53901 4.47618H8.07744L7.65436 4.90661L7.81816 5.58582L7.29144 5.20416ZM-2.253 8.58583L-1.70858 8.20415L-1.18184 8.58583L-1.34561 7.90662L-0.922577 7.47618H-1.46097L-1.70935 6.92188L-1.92117 7.47618H-2.55273L-2.0692 7.90662L-2.253 8.58583ZM1.29142 8.20415L0.747006 8.58583L0.9308 7.90662L0.447268 7.47618H1.07883L1.29065 6.92188L1.53903 7.47618H2.07742L1.65439 7.90662L1.81816 8.58583L1.29142 8.20415ZM3.74701 8.58583L4.29142 8.20415L4.81816 8.58583L4.65436 7.90662L5.07744 7.47618H4.53901L4.29065 6.92188L4.07883 7.47618H3.44727L3.9308 7.90662L3.74701 8.58583ZM7.29144 8.20415L6.74701 8.58583L6.93084 7.90662L6.44724 7.47618H7.07881L7.29069 6.92188L7.53901 7.47618H8.07744L7.65436 7.90662L7.81816 8.58583L7.29144 8.20415ZM9.74701 2.58582L10.2914 2.20416L10.8182 2.58582L10.6544 1.90661L11.0774 1.47618H10.539L10.2907 0.921875L10.0788 1.47618H9.44724L9.93084 1.90661L9.74701 2.58582ZM10.2914 5.20416L9.74701 5.58582L9.93084 4.90661L9.44724 4.47618H10.0788L10.2907 3.92188L10.539 4.47618H11.0774L10.6544 4.90661L10.8182 5.58582L10.2914 5.20416ZM9.74701 8.58583L10.2914 8.20415L10.8182 8.58583L10.6544 7.90662L11.0774 7.47618H10.539L10.2907 6.92188L10.0788 7.47618H9.44724L9.93084 7.90662L9.74701 8.58583ZM-0.208584 3.70416L-0.752994 4.08582L-0.569199 3.40661L-1.05273 2.97618H-0.421172L-0.209349 2.42188L0.0390284 2.97618H0.577423L0.154393 3.40661L0.318163 4.08582L-0.208584 3.70416ZM2.24701 4.08582L2.79142 3.70416L3.31816 4.08582L3.15439 3.40661L3.57742 2.97618H3.03903L2.79065 2.42188L2.57883 2.97618H1.94727L2.4308 3.40661L2.24701 4.08582ZM5.79144 3.70416L5.24701 4.08582L5.43084 3.40661L4.94724 2.97618H5.57881L5.79069 2.42188L6.03901 2.97618H6.57744L6.15436 3.40661L6.31816 4.08582L5.79144 3.70416ZM-0.752994 7.08582L-0.208584 6.70416L0.318163 7.08582L0.154393 6.40661L0.577423 5.97618H0.0390284L-0.209349 5.42188L-0.421172 5.97618H-1.05273L-0.569199 6.40661L-0.752994 7.08582ZM2.79142 6.70416L2.24701 7.08582L2.4308 6.40661L1.94727 5.97618H2.57883L2.79065 5.42188L3.03903 5.97618H3.57742L3.15439 6.40661L3.31816 7.08582L2.79142 6.70416ZM5.24701 7.08582L5.79144 6.70416L6.31816 7.08582L6.15436 6.40661L6.57744 5.97618H6.03901L5.79069 5.42188L5.57881 5.97618H4.94724L5.43084 6.40661L5.24701 7.08582ZM8.79144 3.70416L8.24701 4.08582L8.43084 3.40661L7.94724 2.97618H8.57881L8.79069 2.42188L9.03901 2.97618H9.57744L9.15436 3.40661L9.31816 4.08582L8.79144 3.70416ZM8.24701 7.08582L8.79144 6.70416L9.31816 7.08582L9.15436 6.40661L9.57744 5.97618H9.03901L8.79069 5.42188L8.57881 5.97618H7.94724L8.43084 6.40661L8.24701 7.08582Z"
                  fill="#F7FCFF"/>
        </g>
    </g>
    <defs>
        <clipPath id="clip0_3294_1449">
            <rect width="18" height="18" rx="9" fill="white"/>
        </clipPath>
    </defs>
</svg>
